<svg width="320" height="160" viewBox="0 0 320 160" fill="none" xmlns="http://www.w3.org/2000/svg">
  <defs>
    <linearGradient id="bg" x1="18" y1="18" x2="298" y2="142" gradientUnits="userSpaceOnUse">
      <stop stop-color="#1B1207"/>
      <stop offset="1" stop-color="#8C4E16"/>
    </linearGradient>
    <radialGradient id="sun" cx="0" cy="0" r="1" gradientUnits="userSpaceOnUse" gradientTransform="translate(160 62) scale(34)">
      <stop stop-color="#FFF0A8"/>
      <stop offset="1" stop-color="#F4B94C"/>
    </radialGradient>
  </defs>
  <rect x="8" y="8" width="304" height="144" rx="28" fill="url(#bg)"/>
  <circle cx="160" cy="62" r="30" fill="url(#sun)"/>
  <path d="M160 22V38M160 86V102M120 62H104M216 62H200M135 37L124 26M185 37L196 26M135 87L124 98M185 87L196 98" stroke="#FFF0A8" stroke-width="6" stroke-linecap="round"/>
  <path d="M64 104C95 84 121 82 160 92C196 101 224 99 256 84" stroke="#F4B94C" stroke-width="8" stroke-linecap="round"/>
  <text x="160" y="128" text-anchor="middle" fill="#F8F8F2" font-family="Arial, sans-serif" font-size="28" font-weight="700">Sunny Future</text>
</svg>